# xmcd
#
# Track frame offsets:
#	150
#	13384
#	24857
#	42829
#	59500
#	75498
#	94227
#	109114
#	126158
#	136304
#	150189
#	160692
#
# Disc length: 2310 seconds
#
# Revision: 1
# Processed by: cddbd v1.5.1PL2 Copyright (c) Steve Scherf et al.
# Submitted via: audiograbber 1.83.01
#
DISCID=8b09040c
DTITLE=Tom Morrell - Wolf Tracks
DYEAR=2005
DGENRE=Western Swing
TTITLE0=Lupus
TTITLE1=Some Like It Hot
TTITLE2=River Road Two Step
TTITLE3=My Best to You
TTITLE4=I Can't Give You Anything But Love
TTITLE5=Meet Me in St. Louis
TTITLE6=Curtain Call
TTITLE7=Pterodactyl Ptales
TTITLE8=The Things I Might Have Been
TTITLE9=Sweet Lorraine
TTITLE10=Velociraptor Rag
TTITLE11=Celery Stalks
EXTD=
EXTT0=
EXTT1=
EXTT2=
EXTT3=
EXTT4=
EXTT5=
EXTT6=
EXTT7=
EXTT8=
EXTT9=
EXTT10=
EXTT11=
PLAYORDER=
